
<svg xmlns="http://www.w3.org/2000/svg" viewBox="221.5178 81.9591 98.4813 94.8065">
  <path d="M 316.086 112.18 C 319.482 115.215 320.814 119.943 319.501 124.306 C 319.016 125.894 318.193 127.358 317.089 128.598 L 303.646 143.798 L 305.596 164.031 C 305.788 165.982 305.478 167.95 304.696 169.748 C 302.972 173.631 299.292 176.287 295.063 176.7 C 293.119 176.883 291.162 176.566 289.376 175.78 L 270.776 167.7 L 252.168 175.785 C 250.243 176.637 248.12 176.942 246.034 176.668 C 241.969 176.103 238.487 173.473 236.834 169.717 C 235.999 167.802 235.706 165.695 235.985 163.626 L 237.885 143.799 L 224.442 128.599 C 223.074 127.07 222.139 125.204 221.735 123.194 C 221.342 121.188 221.484 119.114 222.147 117.181 C 222.802 115.249 223.949 113.521 225.475 112.167 C 227.005 110.812 228.869 109.891 230.875 109.5 L 250.448 105.16 L 260.74 87.693 C 261.761 85.929 263.232 84.468 265.003 83.46 C 266.789 82.453 268.809 81.935 270.86 81.96 C 272.906 81.978 274.912 82.529 276.681 83.56 C 278.43 84.586 279.875 86.059 280.87 87.827 L 289.847 103.057 L 291.084 105.157 L 296.884 106.444 C 298.416 106.777 299.951 107.096 301.49 107.4 C 305.02 108.109 308.722 108.853 311.81 109.793 C 313.391 110.269 314.85 111.083 316.087 112.177 Z" style="stroke-width: 1px; fill: #9bf6ff;"/>
</svg>